<svg width="252" height="182" viewBox="0 0 252 182" fill="none" xmlns="http://www.w3.org/2000/svg">
<g clip-path="url(#clip0_25_269)">
<path opacity="0.1" d="M146.416 32.0971C130.261 31.5344 114.862 26.3069 100.18 20.5889C85.4981 14.8708 70.946 8.53412 55.1689 5.50416C45.0251 3.55317 33.4243 3.27877 25.2527 8.72945C17.3873 13.9732 14.8467 23.0258 13.4802 31.4251C12.4523 37.7455 11.856 44.396 14.6658 50.3141C16.6217 54.4207 20.0926 57.8739 22.494 61.8084C30.8466 75.4979 24.9418 92.3801 15.8885 105.758C11.6426 112.036 6.71688 118.01 3.4408 124.687C0.164732 131.363 -1.35265 139.011 1.51507 145.82C4.35727 152.563 11.1275 157.637 18.4639 161.202C33.364 168.436 50.9207 170.506 68.0411 171.692C105.939 174.289 144.04 173.164 182.038 172.038C196.1 171.62 210.225 171.199 224.058 169.015C231.74 167.804 239.673 165.883 245.251 161.246C252.329 155.358 254.086 145.392 249.341 138.009C241.383 125.628 219.381 122.552 213.817 109.265C210.757 101.951 213.901 93.8032 218.351 87.0201C227.893 72.4703 243.893 59.704 244.736 43.0706C245.316 31.646 237.624 20.2075 225.731 14.801C213.267 9.12941 195.982 9.84563 186.787 19.2192C177.319 28.8765 160.678 32.5924 146.416 32.0971Z" fill="#6C63FF"/>
<path d="M56.206 168.599C56.206 168.599 43.4451 158.93 41.0344 146.631C40.0568 141.466 37.4346 136.757 33.5612 133.211C31.7082 131.543 29.7068 130.049 27.5821 128.747" stroke="#535461" stroke-width="2" stroke-miterlimit="10"/>
<path d="M26.0207 120.998C27.139 122.515 27.6448 128.94 27.6448 128.94C27.6448 128.94 21.6657 126.579 20.5451 125.066C20.007 124.338 19.7793 123.426 19.9123 122.53C20.0452 121.634 20.5278 120.827 21.2539 120.288C21.98 119.749 22.8901 119.521 23.7841 119.654C24.678 119.787 25.4826 120.271 26.0207 120.998Z" fill="#6C63FF"/>
<path d="M36.7445 126.04C36.8605 127.921 33.8048 133.59 33.8048 133.59C33.8048 133.59 30.0624 128.349 29.9441 126.468C29.8991 125.571 30.2085 124.692 30.8052 124.023C31.402 123.353 32.2381 122.946 33.1323 122.889C34.0265 122.833 34.9068 123.132 35.5825 123.722C36.2582 124.312 36.6748 125.144 36.7421 126.04H36.7445Z" fill="#6C63FF"/>
<path d="M47.1388 140.532C46.2942 142.215 40.7977 145.564 40.7977 145.564C40.7977 145.564 40.2107 139.146 41.0553 137.462C41.471 136.67 42.1803 136.074 43.0304 135.801C43.8805 135.528 44.8036 135.601 45.6009 136.003C46.3983 136.405 47.0061 137.105 47.2937 137.952C47.5813 138.799 47.5257 139.725 47.1388 140.532Z" fill="#6C63FF"/>
<path d="M52.5424 153.265C51.9925 155.068 47.1411 159.297 47.1411 159.297C47.1411 159.297 45.4775 153.072 46.0274 151.268C46.2917 150.402 46.8884 149.677 47.6861 149.252C48.4839 148.827 49.4175 148.737 50.2814 149.002C51.1454 149.267 51.8689 149.865 52.293 150.664C52.717 151.464 52.8067 152.399 52.5424 153.265Z" fill="#6C63FF"/>
<path d="M28.2735 138.148C30.1297 138.399 35.9973 135.744 35.9973 135.744C35.9973 135.744 31.0461 131.632 29.1807 131.381C28.2854 131.261 27.3789 131.502 26.6608 132.051C25.9426 132.6 25.4716 133.413 25.3513 134.31C25.231 135.207 25.4713 136.116 26.0193 136.836C26.5673 137.555 27.3782 138.028 28.2735 138.148Z" fill="#6C63FF"/>
<path d="M34.7816 152.963C36.6377 152.645 41.4335 148.354 41.4335 148.354C41.4335 148.354 35.48 145.917 33.6262 146.236C33.1823 146.309 32.7573 146.469 32.3756 146.707C31.9939 146.946 31.6631 147.258 31.4023 147.625C31.1414 147.992 30.9558 148.408 30.856 148.847C30.7562 149.287 30.7443 149.742 30.8209 150.186C30.8975 150.63 31.0611 151.055 31.3023 151.435C31.5435 151.816 31.8575 152.144 32.2261 152.403C32.5948 152.661 33.0109 152.843 33.4503 152.939C33.8897 153.036 34.3437 153.044 34.7862 152.963H34.7816Z" fill="#6C63FF"/>
<path d="M43.0762 166.494C44.9578 166.494 50.4102 163.078 50.4102 163.078C50.4102 163.078 44.9555 159.667 43.0738 159.667C42.1705 159.667 41.3042 160.027 40.6654 160.667C40.0267 161.307 39.6678 162.175 39.6678 163.081C39.6678 163.986 40.0267 164.854 40.6654 165.495C41.3042 166.135 42.1705 166.494 43.0738 166.494H43.0762Z" fill="#6C63FF"/>
<path d="M180.172 84.9715C180.172 84.9715 188.038 71.0076 199.894 66.9847C204.872 65.3276 209.18 62.0974 212.172 57.7786C213.575 55.7138 214.786 53.5242 215.789 51.2373" stroke="#535461" stroke-width="2" stroke-miterlimit="10"/>
<path d="M223.232 48.6794C221.882 49.9909 215.597 51.3489 215.597 51.3489C215.597 51.3489 217.14 45.0936 218.49 43.7798C219.142 43.1682 220.007 42.8376 220.9 42.8591C221.792 42.8806 222.641 43.2525 223.262 43.8948C223.884 44.5371 224.229 45.3984 224.224 46.2933C224.218 47.1881 223.862 48.045 223.232 48.6794Z" fill="#6C63FF"/>
<path d="M219.678 59.9877C217.822 60.3551 211.819 58.0716 211.819 58.0716C211.819 58.0716 216.506 53.6533 218.351 53.2929C218.794 53.1944 219.252 53.1856 219.698 53.2669C220.144 53.3483 220.57 53.5182 220.95 53.7666C221.33 54.0151 221.656 54.3371 221.91 54.7138C222.164 55.0905 222.341 55.5143 222.429 55.9603C222.518 56.4062 222.516 56.8654 222.425 57.3108C222.334 57.7562 222.155 58.1789 221.899 58.5541C221.643 58.9293 221.314 59.2493 220.933 59.4955C220.551 59.7417 220.125 59.909 219.678 59.9877Z" fill="#6C63FF"/>
<path d="M206.741 72.2377C204.963 71.6215 200.924 66.608 200.924 66.608C200.924 66.608 207.188 65.1709 208.97 65.7871C209.398 65.9295 209.794 66.1556 210.134 66.4525C210.474 66.7493 210.752 67.1109 210.952 67.5163C211.152 67.9217 211.269 68.3627 211.297 68.8139C211.325 69.2651 211.264 69.7174 211.116 70.1446C210.969 70.5718 210.738 70.9653 210.437 71.3023C210.136 71.6394 209.772 71.9132 209.365 72.1079C208.958 72.3026 208.516 72.4144 208.066 72.4367C207.615 72.459 207.165 72.3913 206.741 72.2377Z" fill="#6C63FF"/>
<path d="M194.852 79.2976C192.996 78.9906 188.179 74.7236 188.179 74.7236C188.179 74.7236 194.117 72.2447 195.97 72.5517C196.863 72.6987 197.66 73.1951 198.187 73.9314C198.714 74.6677 198.928 75.5838 198.781 76.4781C198.634 77.3723 198.139 78.1715 197.405 78.6998C196.67 79.2282 195.756 79.4423 194.864 79.2952L194.852 79.2976Z" fill="#6C63FF"/>
<path d="M206.578 53.1813C206.576 55.0672 209.989 60.5388 209.989 60.5388C209.989 60.5388 213.397 55.0741 213.397 53.1906C213.409 52.735 213.33 52.2816 213.164 51.8571C212.998 51.4327 212.749 51.0459 212.432 50.7194C212.115 50.3929 211.735 50.1335 211.316 49.9563C210.897 49.7791 210.447 49.6879 209.992 49.6879C209.537 49.6879 209.087 49.7791 208.668 49.9563C208.249 50.1335 207.87 50.3929 207.553 50.7194C207.235 51.0459 206.986 51.4327 206.821 51.8571C206.655 52.2816 206.576 52.735 206.587 53.1906L206.578 53.1813Z" fill="#6C63FF"/>
<path d="M192.789 61.6131C193.351 63.4129 198.233 67.6102 198.233 67.6102C198.233 67.6102 199.857 61.3736 199.291 59.5737C198.997 58.7399 198.392 58.0527 197.603 57.6569C196.814 57.2612 195.903 57.1877 195.061 57.452C194.219 57.7163 193.512 58.2978 193.089 59.0739C192.666 59.8501 192.561 60.7604 192.794 61.6131H192.789Z" fill="#6C63FF"/>
<path d="M180.523 71.6517C180.773 73.512 184.875 78.4814 184.875 78.4814C184.875 78.4814 187.523 72.6098 187.272 70.7425C187.222 70.2901 187.083 69.8522 186.862 69.4546C186.641 69.057 186.343 68.7077 185.985 68.4273C185.627 68.1469 185.217 67.941 184.779 67.8218C184.341 67.7025 183.883 67.6723 183.433 67.733C182.983 67.7936 182.549 67.9438 182.158 68.1748C181.767 68.4058 181.425 68.7129 181.154 69.078C180.883 69.4432 180.688 69.859 180.579 70.301C180.471 70.7429 180.451 71.2022 180.523 71.6517Z" fill="#6C63FF"/>
<path opacity="0.25" d="M223.232 48.6794C221.882 49.9909 215.597 51.3489 215.597 51.3489C215.597 51.3489 217.14 45.0936 218.49 43.7798C219.142 43.1682 220.007 42.8376 220.9 42.8591C221.792 42.8806 222.641 43.2525 223.262 43.8948C223.884 44.5371 224.229 45.3984 224.224 46.2933C224.218 47.1881 223.862 48.045 223.232 48.6794Z" fill="black"/>
<path opacity="0.25" d="M219.678 59.9877C217.822 60.3551 211.819 58.0716 211.819 58.0716C211.819 58.0716 216.506 53.6533 218.351 53.2929C218.794 53.1944 219.252 53.1856 219.698 53.2669C220.144 53.3483 220.57 53.5182 220.95 53.7666C221.33 54.0151 221.656 54.3371 221.91 54.7138C222.164 55.0905 222.341 55.5143 222.429 55.9603C222.518 56.4062 222.516 56.8654 222.425 57.3108C222.334 57.7562 222.155 58.1789 221.899 58.5541C221.643 58.9293 221.314 59.2493 220.933 59.4955C220.551 59.7417 220.125 59.909 219.678 59.9877Z" fill="black"/>
<path opacity="0.25" d="M206.741 72.2377C204.963 71.6215 200.924 66.608 200.924 66.608C200.924 66.608 207.188 65.1709 208.97 65.7871C209.398 65.9295 209.794 66.1556 210.134 66.4525C210.474 66.7493 210.752 67.1109 210.952 67.5163C211.152 67.9217 211.269 68.3627 211.297 68.8139C211.325 69.2651 211.264 69.7174 211.116 70.1446C210.969 70.5718 210.738 70.9653 210.437 71.3023C210.136 71.6394 209.772 71.9132 209.365 72.1079C208.958 72.3026 208.516 72.4144 208.066 72.4367C207.615 72.459 207.165 72.3913 206.741 72.2377Z" fill="black"/>
<path opacity="0.25" d="M194.852 79.2976C192.996 78.9906 188.179 74.7236 188.179 74.7236C188.179 74.7236 194.117 72.2447 195.97 72.5517C196.863 72.6987 197.66 73.1951 198.187 73.9314C198.714 74.6677 198.928 75.5838 198.781 76.4781C198.634 77.3723 198.139 78.1715 197.405 78.6998C196.67 79.2282 195.756 79.4423 194.864 79.2952L194.852 79.2976Z" fill="black"/>
<path opacity="0.25" d="M206.578 53.1813C206.576 55.0672 209.989 60.5388 209.989 60.5388C209.989 60.5388 213.397 55.0741 213.397 53.1906C213.409 52.735 213.33 52.2816 213.164 51.8571C212.998 51.4327 212.749 51.0459 212.432 50.7194C212.115 50.3929 211.735 50.1335 211.316 49.9563C210.897 49.7791 210.447 49.6879 209.992 49.6879C209.537 49.6879 209.087 49.7791 208.668 49.9563C208.249 50.1335 207.87 50.3929 207.553 50.7194C207.235 51.0459 206.986 51.4327 206.821 51.8571C206.655 52.2816 206.576 52.735 206.587 53.1906L206.578 53.1813Z" fill="black"/>
<path opacity="0.25" d="M192.789 61.6131C193.351 63.4129 198.233 67.6102 198.233 67.6102C198.233 67.6102 199.857 61.3736 199.291 59.5737C198.997 58.7399 198.392 58.0527 197.603 57.6569C196.814 57.2612 195.903 57.1877 195.061 57.452C194.219 57.7163 193.512 58.2978 193.089 59.0739C192.666 59.8501 192.561 60.7604 192.794 61.6131H192.789Z" fill="black"/>
<path opacity="0.25" d="M180.523 71.6517C180.773 73.512 184.875 78.4814 184.875 78.4814C184.875 78.4814 187.523 72.6098 187.272 70.7425C187.222 70.2901 187.083 69.8522 186.862 69.4546C186.641 69.057 186.343 68.7077 185.985 68.4273C185.627 68.1469 185.217 67.941 184.779 67.8218C184.341 67.7025 183.883 67.6723 183.433 67.733C182.983 67.7936 182.549 67.9438 182.158 68.1748C181.767 68.4058 181.425 68.7129 181.154 69.078C180.883 69.4432 180.688 69.859 180.579 70.301C180.471 70.7429 180.451 71.2022 180.523 71.6517Z" fill="black"/>
<path d="M180.625 84.6948C180.625 84.6948 182.17 68.7334 191.372 60.2458C195.253 56.7085 197.886 52.0057 198.875 46.8423C199.326 44.3877 199.55 41.8969 199.546 39.4011" stroke="#535461" stroke-width="2" stroke-miterlimit="10"/>
<path d="M205.314 34.0156C204.618 35.7642 199.411 39.5593 199.411 39.5593C199.411 39.5593 198.293 33.2133 198.996 31.4646C199.334 30.625 199.992 29.9544 200.823 29.6005C201.655 29.2466 202.593 29.2384 203.431 29.5776C204.269 29.9168 204.938 30.5757 205.291 31.4092C205.644 32.2428 205.652 33.1829 205.314 34.0225V34.0156Z" fill="#6C63FF"/>
<path d="M206.638 45.8099C205.1 46.8935 198.68 47.2493 198.68 47.2493C198.68 47.2493 201.181 41.3103 202.72 40.2266C203.085 39.953 203.5 39.7555 203.943 39.6458C204.385 39.5362 204.845 39.5166 205.295 39.5882C205.745 39.6599 206.176 39.8213 206.563 40.0629C206.949 40.3046 207.284 40.6215 207.546 40.995C207.808 41.3685 207.993 41.7909 208.089 42.2372C208.186 42.6836 208.192 43.1448 208.107 43.5935C208.023 44.0423 207.849 44.4695 207.597 44.8498C207.344 45.23 207.019 45.5557 206.638 45.8075V45.8099Z" fill="#6C63FF"/>
<path d="M199.757 62.2688C197.882 62.427 192.161 59.4784 192.161 59.4784C192.161 59.4784 197.311 55.6183 199.186 55.4602C200.086 55.3843 200.98 55.67 201.67 56.2543C202.36 56.8387 202.79 57.6739 202.866 58.5762C202.942 59.4784 202.657 60.3739 202.073 61.0655C201.49 61.7572 200.657 62.1883 199.757 62.2642V62.2688Z" fill="#6C63FF"/>
<path d="M191.75 73.5446C189.929 74.0097 183.794 72.0866 183.794 72.0866C183.794 72.0866 188.219 67.4103 190.04 66.9359C190.914 66.7086 191.843 66.8388 192.622 67.2978C193.4 67.7568 193.965 68.507 194.192 69.3833C194.419 70.2597 194.289 71.1905 193.831 71.9708C193.373 72.7512 192.624 73.3173 191.75 73.5446Z" fill="#6C63FF"/>
<path d="M191.912 44.9076C192.673 46.6307 197.996 50.256 197.996 50.256C197.996 50.256 198.901 43.8751 198.14 42.152C197.76 41.3459 197.082 40.7203 196.248 40.409C195.415 40.0977 194.493 40.1254 193.68 40.4862C192.867 40.8469 192.227 41.5121 191.897 42.3396C191.566 43.1671 191.572 44.0912 191.912 44.9146V44.9076Z" fill="#6C63FF"/>
<path d="M182.715 58.2134C183.957 59.6296 190.114 61.4852 190.114 61.4852C190.114 61.4852 189.075 55.1253 187.834 53.7092C187.541 53.3651 187.182 53.0829 186.779 52.8788C186.377 52.6748 185.938 52.553 185.487 52.5205C185.037 52.488 184.585 52.5455 184.157 52.6897C183.73 52.8339 183.335 53.0618 182.996 53.3602C182.656 53.6586 182.38 54.0217 182.182 54.4281C181.984 54.8346 181.869 55.2765 181.843 55.728C181.817 56.1796 181.88 56.6318 182.03 57.0585C182.18 57.4852 182.413 57.8777 182.715 58.2134Z" fill="#6C63FF"/>
<path d="M175.548 72.3796C176.532 73.9841 182.288 76.8559 182.288 76.8559C182.288 76.8559 182.337 70.4123 181.36 68.8055C180.874 68.0636 180.119 67.5406 179.254 67.3476C178.39 67.1546 177.484 67.3067 176.73 67.7716C175.975 68.2365 175.431 68.9776 175.213 69.8379C174.994 70.6981 175.119 71.6098 175.56 72.3796H175.548Z" fill="#6C63FF"/>
<path d="M168.792 22.1864C169.177 20.7702 169.641 19.3471 169.966 17.9124C169.576 19.3471 169.11 20.7749 168.792 22.1864Z" fill="url(#paint0_linear_25_269)"/>
<path d="M167.066 35.827C167.033 35.7712 167.01 35.7154 166.985 35.6643C166.985 35.641 166.961 35.6224 166.952 35.5991C166.902 35.6231 166.85 35.644 166.797 35.6619C166.695 35.7015 166.59 35.7387 166.483 35.7689C166.377 35.7991 166.333 35.8154 166.251 35.834C166.184 35.8573 166.115 35.8751 166.045 35.8875L166.063 35.9293C166.149 35.9107 166.233 35.8945 166.319 35.8712L166.342 36.1596C166.439 36.1596 166.53 36.1456 166.618 36.1456C166.66 36.1433 166.702 36.1433 166.743 36.1456C166.924 36.1456 167.082 36.1456 167.207 36.1456C167.159 36.041 167.108 35.9317 167.066 35.827ZM214.165 110.967C213.075 109.495 210.898 93.6963 210.898 93.6963C210.898 93.6963 206.618 82.4624 207.785 77.9791C208.952 73.4958 204.597 62.0247 204.597 62.0247C204.597 62.0247 201.72 60.7713 201.564 58.911C201.564 58.911 189.817 55.1904 189.267 52.4C188.822 50.1118 181.537 48.4701 178.919 47.9515C178.121 44.7239 177.319 41.7126 176.727 40.0685C176.567 39.5569 176.416 39.1151 176.277 38.7663C175.277 36.2084 172.186 35.9759 169.945 36.1805C169.848 35.7445 169.668 35.3315 169.414 34.9643C169.377 34.8381 169.303 34.7256 169.203 34.6411C169.155 34.6 169.103 34.5627 169.05 34.5295C169.009 34.4541 168.956 34.3864 168.892 34.3295C168.828 34.272 168.758 34.2221 168.683 34.1807C168.629 34.1514 168.573 34.1258 168.516 34.1039C168.381 34.0526 168.242 34.0145 168.101 33.99C167.935 33.9559 167.768 33.9342 167.599 33.9249C168.009 33.7453 168.374 33.4778 168.669 33.1412C168.87 32.9049 169.019 32.6293 169.108 32.332C169.181 32.0847 169.214 31.8271 169.205 31.5693C169.145 31.6755 169.075 31.776 168.996 31.8692C169.094 30.8391 168.551 29.7927 168.24 28.7672C167.863 27.4321 167.793 26.0289 168.036 24.6629C168.347 22.6026 169.117 20.5191 169.639 18.4216C169.64 18.41 169.64 18.3983 169.639 18.3867C169.913 17.3451 170.082 16.2787 170.145 15.2033C170.235 13.0337 169.681 10.8688 168.79 8.89223C167.998 7.14122 166.831 5.41812 165.045 4.70656C163.718 4.1694 162.231 4.25544 160.801 4.16707C157.595 3.96709 154.537 2.83696 151.488 1.80914C148.439 0.781329 145.303 -0.153471 142.094 0.0255823C138.885 0.204636 135.583 1.75566 134.119 4.60192C133.655 5.49021 133.389 6.47849 132.834 7.3133C131.795 8.88758 129.934 9.67588 128.382 10.7618C126.829 11.8478 125.463 13.3895 124.901 15.2289C124.595 16.2199 124.552 17.2739 124.776 18.2867C124.827 18.5155 124.892 18.7407 124.971 18.9611C125.191 19.5755 125.535 20.1382 125.98 20.6144C126.316 20.9664 126.703 21.2665 127.126 21.5051C127.659 21.8008 128.228 22.0229 128.82 22.1655C128.799 22.2352 128.778 22.3096 128.755 22.3817C128.718 22.5003 128.686 22.6143 128.651 22.7422C128.574 23.0282 128.502 23.3188 128.442 23.6118C128.44 23.6327 128.44 23.6538 128.442 23.6746C128.157 24.9973 128.014 26.3467 128.015 27.6999C128.015 28.3398 128.047 28.9794 128.113 29.616C129.041 39.0523 136.813 46.4958 146.416 46.9795C146.746 46.9958 147.078 47.0051 147.414 47.0051C147.567 47.0051 147.718 47.0051 147.878 47.0051C148.029 47.2051 148.177 47.4097 148.319 47.6097C148.46 47.8097 148.59 48.0143 148.713 48.2143L148.377 47.8655L148.04 47.5562C147.949 47.6817 147.848 47.7991 147.736 47.9073C147.517 47.83 147.293 47.7663 147.066 47.7167C146.103 47.5027 144.637 47.4237 142.706 48.0073C140.931 48.5398 138.762 49.6351 136.224 51.7163L123.855 59.1575L117.164 63.2362L114.753 69.1427C114.753 69.1427 112.941 76.1606 110.925 84.2018C110.846 84.225 110.769 84.2483 110.693 84.2762C110.529 84.2576 110.365 84.2482 110.201 84.2483C109.031 84.2455 107.906 84.6973 107.061 85.5085C106.217 86.3198 105.719 87.4276 105.672 88.5991C101.663 93.4823 101.435 98.3656 102.377 100.607C102.463 100.817 102.57 101.018 102.697 101.205C103.315 102.098 104.468 104.4 105.637 106.853C105.607 107.056 105.588 107.225 105.579 107.353C105.577 107.395 105.577 107.437 105.579 107.479C105.579 107.479 106.275 118.015 103.955 121.036C103.447 121.694 103.523 122.559 103.955 123.517C105.509 126.963 111.656 131.565 111.656 131.565C111.656 131.565 119.027 131.525 123.133 131.077C123.122 131.491 123.113 131.902 123.103 132.304C123.01 136.369 123.01 139.776 123.01 139.776L122.857 144.038C122.857 144.038 121.465 153.021 120.769 155.498C120.331 157.051 120.837 171.434 121.277 182.007H193.903C194.757 175.752 193.553 156.746 193.553 156.746C193.553 156.746 192.409 151.833 192.367 147.55C192.365 147.545 192.364 147.54 192.364 147.534C192.364 147.529 192.365 147.524 192.367 147.519C192.367 147.145 192.367 146.78 192.381 146.422L192.908 146.403L193.854 146.371H193.94C193.94 146.371 193.963 146.282 194.017 146.138C194.142 145.779 194.313 145.437 194.525 145.122C194.929 144.524 195.56 143.938 196.509 143.899C197.033 143.878 197.845 143.452 198.762 142.824C198.768 142.826 198.774 142.826 198.78 142.824C201.246 141.152 204.506 138.067 205.297 137.56C206.386 136.862 211.597 132.211 211.597 132.211C211.597 132.211 212.374 131.225 213.202 130.037L213.232 129.995C214.263 128.507 215.358 126.728 215.089 126.168C214.624 125.163 215.399 122.761 215.399 122.761C217.819 118.322 215.256 112.439 214.165 110.967ZM169.3 39.443C169.322 39.5124 169.336 39.5842 169.342 39.6569C169.284 39.5802 169.226 39.4988 169.168 39.4244L169.112 39.35L169.073 39.2942L169.161 39.1732C169.161 39.1732 169.161 39.1732 169.161 39.1895C169.222 39.2649 169.269 39.3508 169.3 39.443ZM168.521 37.3827C168.268 37.4339 168.068 37.4804 167.938 37.5153C167.773 37.2223 167.616 36.9293 167.474 36.6316C167.846 36.8479 168.196 37.0994 168.521 37.3827ZM168.084 37.7501C168.084 37.7455 168.084 37.7408 168.084 37.7362L168.103 37.7501C168.198 37.8129 168.291 37.8734 168.377 37.9361C168.453 37.992 168.523 38.0454 168.592 38.1012C168.546 38.1826 168.495 38.2663 168.444 38.3338C168.363 38.2059 168.286 38.0826 168.212 37.9548C168.166 37.9036 168.124 37.8338 168.084 37.7501ZM166.692 34.8806C167.14 34.8363 167.592 34.8363 168.04 34.8806C168.103 34.8806 168.159 34.8922 168.214 34.9015C168.34 34.921 168.464 34.953 168.583 34.9969C168.857 35.3813 169.026 35.8311 169.073 36.3014L168.947 36.32L168.824 36.3433C168.592 36.3828 168.36 36.4223 168.179 36.4595L167.947 36.5084C167.639 36.5758 167.46 36.627 167.453 36.6293C167.423 36.5665 167.393 36.5084 167.36 36.4479C167.309 36.3479 167.256 36.2456 167.21 36.1456C167.163 36.0456 167.103 35.9317 167.054 35.827C167.022 35.7712 166.998 35.7154 166.973 35.6643C166.973 35.641 166.95 35.6224 166.94 35.5991C166.927 35.5745 166.915 35.5488 166.906 35.5224C166.764 35.2341 166.634 34.9457 166.509 34.662C166.495 34.6341 166.483 34.6039 166.472 34.576L166.648 34.5644V34.6248L166.692 34.8806ZM111.335 179.133C111.317 175.67 111.066 171.924 110.37 168.408C110.073 166.913 109.767 165.418 109.456 163.948C109.377 163.581 109.301 163.218 109.224 162.855L108.509 162.951H108.445C106.496 153.74 104.458 145.624 104.458 145.624C104.458 145.624 100.412 130.14 100.881 128.905C100.941 128.744 100.865 128.312 100.693 127.677C99.7137 124.156 95.6256 114.455 94.1964 111.139C94.1964 111.125 94.1848 111.109 94.1801 111.097C93.9481 110.541 93.7811 110.167 93.73 110.058L94.0664 105.109L94.085 104.812L94.1291 104.179L94.1105 104.163L94.1291 103.87C94.1291 103.87 90.5978 100.968 84.6164 98.8726C84.3844 98.7888 84.1385 98.7075 83.8948 98.6284C84.1941 96.6262 84.5909 94.366 85.1083 92.1638C85.157 91.9429 85.2104 91.729 85.2661 91.5127C85.3148 91.2965 85.3705 91.0872 85.4262 90.8756C85.5143 90.5314 85.6094 90.1919 85.7069 89.8571C86.0294 89.7548 86.3473 89.6408 86.6605 89.5199L86.7811 89.4734C90.6398 87.9686 93.8237 85.1134 95.7433 81.4366C97.6629 77.7598 98.1882 73.5103 97.2219 69.4752C96.6709 67.1867 95.6534 65.0371 94.2335 63.1618C94.1268 63.0176 94.0131 62.8734 93.8994 62.7316C93.7857 62.5898 93.6488 62.4316 93.5212 62.2875C94.1917 60.7597 94.9829 59.3063 95.0479 57.8204C95.0595 57.6322 95.0595 57.4435 95.0479 57.2553V57.2321C94.962 56.2764 94.5398 55.309 93.556 54.2928C92.1198 52.8023 90.0758 52.0465 88.0317 51.6838C85.9876 51.321 83.9041 51.3117 81.8485 51.0675C78.4401 50.6583 75.12 49.6049 71.7117 49.2816C67.5135 48.892 63.2869 49.6137 59.4542 51.3745C56.9183 52.5372 54.3499 54.5695 54.1967 57.3577C54.0714 59.6621 55.6724 61.8712 55.2687 64.1478C54.8673 66.3848 52.5935 68.1451 52.793 70.4077C52.8696 71.2913 53.322 72.0819 53.8882 72.7865C54.0831 73.0191 54.2895 73.2516 54.503 73.4841C55.329 74.3608 56.2385 75.2026 56.7002 76.3071C56.7188 76.3536 56.7373 76.4001 56.7536 76.4467C57.1457 77.5373 56.9693 78.9162 55.9995 79.5417C56.0049 79.5459 56.0089 79.5516 56.0111 79.558C56.025 79.5766 56.0389 79.5906 56.0505 79.6092C56.052 79.6054 56.052 79.6013 56.0505 79.5975C56.3944 80.0061 56.858 80.2958 57.3754 80.4254L57.5726 80.4858C57.4125 80.6602 57.2617 80.8416 57.1085 81.0323L57.0088 81.1648C56.7531 81.5094 56.5206 81.8706 56.3127 82.2461C56.1944 82.4554 56.0807 82.6647 55.9856 82.874C55.6675 83.5119 55.4373 84.1901 55.3011 84.8901C55.0529 86.4295 55.4032 88.034 55.0274 89.5408C54.5633 91.4011 53.0947 92.8289 52.2664 94.5567C50.6979 97.8122 51.5866 101.633 51.9021 105.228C52.3313 110.111 51.6353 115.015 50.9415 119.866C50.5734 122.446 50.2053 125.028 49.8371 127.612C48.9091 134.098 47.981 140.584 47.0529 147.071C46.7142 149.447 46.3128 151.954 44.7328 153.789H44.749C44.749 153.789 44.749 153.803 44.7328 153.807C45.2071 154.015 45.7115 154.145 46.227 154.193C48.2896 154.4 50.4752 153.4 52.3313 152.307C53.8013 151.456 55.1933 150.476 56.4914 149.38C56.3011 150.077 56.097 150.838 55.8789 151.656C55.8796 151.664 55.8796 151.672 55.8789 151.679C53.2594 161.679 49.046 180.009 49.046 180.009C49.046 180.009 48.6631 180.807 48.1666 181.995H113.595C112.83 181.065 112.117 180.175 111.56 179.456L111.335 179.133ZM62.8904 86.676C62.9066 86.6481 62.9182 86.6225 62.9345 86.5969C62.9345 86.6713 62.9345 86.7434 62.9345 86.8132C62.9345 86.8829 62.9345 86.9457 62.9345 87.0108C62.9345 87.0759 62.9345 87.069 62.9345 87.1015C62.9345 87.1341 62.9345 87.1015 62.9345 87.1015C62.9345 87.1969 62.9136 87.2922 62.8974 87.3875C62.8974 87.3875 62.8974 87.3992 62.8974 87.4085L63.1294 87.4945L63.3985 87.6061C64.9886 88.2355 66.5988 88.8052 68.2291 89.3153C68.3961 89.3688 68.5655 89.4199 68.7349 89.4687L68.7697 89.7571C68.8115 90.0524 68.8509 90.3524 68.888 90.6524C68.888 90.6524 68.888 90.6663 68.888 90.6756C68.9924 91.5058 69.0945 92.3336 69.185 93.1428C69.185 93.1428 64.9252 91.5151 64.9785 93.9869C64.9761 94.0311 64.9761 94.0753 64.9785 94.1195C64.9738 94.1783 64.9738 94.2374 64.9785 94.2962C65.018 96.2216 65.6189 97.3634 65.7396 97.9494C65.7323 97.9736 65.7196 97.9959 65.7024 98.0145C65.5995 98.239 65.564 98.4887 65.6003 98.733C65.5963 99.149 65.6289 99.5645 65.6978 99.9748C65.5725 100.052 65.4495 100.128 65.3266 100.207C65.2338 100.265 65.1456 100.331 65.0551 100.396C64.4859 98.4169 63.7413 96.4931 62.8301 94.6473C62.192 93.3312 61.4751 91.9592 61.4821 90.5152C61.4821 90.4221 61.4821 90.3268 61.4937 90.2315C61.5195 89.8129 61.5991 89.3995 61.7303 89.0013C61.7837 88.8502 61.8417 88.7014 61.9066 88.5549C62.0583 88.2068 62.2279 87.8668 62.4148 87.5364C62.5354 87.3178 62.663 87.1015 62.786 86.8829C62.8254 86.8178 62.8626 86.7504 62.8997 86.6853L62.8904 86.676ZM167.066 35.827C167.033 35.7712 167.01 35.7154 166.985 35.6643C166.985 35.641 166.961 35.6224 166.952 35.5991C166.902 35.6231 166.85 35.644 166.797 35.6619C166.695 35.7015 166.59 35.7387 166.483 35.7689C166.377 35.7991 166.333 35.8154 166.251 35.834L166.045 35.8875L166.063 35.9293C166.149 35.9107 166.233 35.8945 166.319 35.8712L166.342 36.1596C166.439 36.1596 166.53 36.1456 166.618 36.1456H166.743C166.924 36.1456 167.082 36.1456 167.207 36.1456C167.159 36.041 167.108 35.9317 167.066 35.827Z" fill="url(#paint1_linear_25_269)"/>
<path d="M116.37 69.9821L114.978 70.5983C114.978 70.5983 105.904 105.93 105.904 108.786C105.904 111.641 125.145 127.53 125.145 127.53L128.147 107.221C128.147 107.221 123.836 60.6457 116.37 69.9821Z" fill="#E8F5FF"/>
<path d="M158.576 58.7436L150.537 54.5393C150.087 52.6154 149.288 50.7907 148.18 49.1561C147.003 47.4539 145.439 45.782 143.491 44.9099C138.565 42.6962 164.326 31.0763 164.326 31.0763C164.731 32.4722 165.209 33.846 165.757 35.1922C167.084 38.4756 169.286 42.7218 172.124 43.931C176.947 45.9889 158.576 58.7436 158.576 58.7436Z" fill="#FFC1C7"/>
<path opacity="0.1" d="M165.757 35.1922C164.656 39.0721 162.367 42.5074 159.213 45.0129C156.059 47.5185 152.2 48.9678 148.18 49.1561C147.003 47.4539 145.439 45.782 143.491 44.9099C138.565 42.6962 164.326 31.0763 164.326 31.0763C164.731 32.4722 165.209 33.846 165.757 35.1922Z" fill="black"/>
<path d="M166.481 29.3253C166.482 33.1305 165.357 36.8504 163.248 40.0148C161.14 43.1791 158.142 45.6455 154.635 47.1022C151.127 48.559 147.267 48.9405 143.544 48.1985C139.82 47.4565 136.399 45.6245 133.714 42.9339C131.03 40.2434 129.201 36.8154 128.46 33.0833C127.72 29.3513 128.1 25.4829 129.553 21.9674C131.006 18.4519 133.467 15.4473 136.624 13.3335C139.78 11.2197 143.492 10.0917 147.289 10.0921C149.812 10.0804 152.313 10.5699 154.647 11.5323C156.98 12.4947 159.1 13.9109 160.885 15.6992C162.669 17.4874 164.083 19.6123 165.043 21.9511C166.004 24.2899 166.492 26.7962 166.481 29.3253Z" fill="#FFC1C7"/>
<path d="M169.251 56.274L164.017 68.5148L159.4 76.6397H144.621L140.31 65.5314L142.057 54.0115H153.344L160.632 53.5999L163.094 52.7767L164.681 53.6789L169.251 56.274Z" fill="#575A89"/>
<path opacity="0.1" d="M167.449 39.9569C167.449 39.9569 170.713 40.6545 167.79 43.0566C164.866 45.4587 154.78 53.0976 154.78 53.0976C154.78 53.0976 158.323 56.2601 157.59 59.9644L169.328 53.4069L171.416 42.9148C171.416 42.9148 171.65 39.7616 167.449 39.9569Z" fill="black"/>
<path opacity="0.1" d="M157.089 53.0976L149.623 54.3323C149.623 54.3323 151.163 60.0411 150.393 61.6619C150.37 61.7123 150.35 61.7644 150.335 61.8177L147.289 70.0705L149.572 76.5513L157.474 65.7499L154.781 61.6619C154.781 61.6619 157.627 57.8809 159.321 56.5694C161.015 55.2578 157.089 53.0976 157.089 53.0976Z" fill="black"/>
<path d="M157.089 52.779L149.623 54.0114C149.623 54.0114 151.163 59.7202 150.393 61.341C150.37 61.3914 150.35 61.4435 150.335 61.4968L147.289 69.7496L149.572 76.2304L157.474 65.4221L154.781 61.3341C154.781 61.3341 157.627 57.553 159.321 56.2415C161.015 54.93 157.089 52.779 157.089 52.779Z" fill="#DCE6F2"/>
<path d="M167.762 39.3407C167.762 39.3407 171.026 40.0383 168.101 42.4404C165.175 44.8425 154.78 53.0976 154.78 53.0976C154.78 53.0976 158.63 55.6439 157.899 59.3459L169.636 52.7906L171.725 42.2985C171.725 42.2985 171.957 39.1453 167.762 39.3407Z" fill="#575A89"/>
<path opacity="0.1" d="M148.692 49.8839C148.692 49.8839 149.405 51.2187 152.549 53.6254C152.549 53.6254 147.314 56.4159 149.317 60.3388L141.31 58.246L140.078 54.3882L148.692 49.8839Z" fill="black"/>
<path d="M148.384 49.577C148.384 49.577 149.096 50.9117 152.24 53.3185C152.24 53.3185 147.006 56.095 149.008 60.0295L141.003 57.9367L139.771 54.0812L148.384 49.577Z" fill="#575A89"/>
<path opacity="0.1" d="M169.251 56.274L164.017 68.5148L159.409 76.6397H144.621L140.31 65.5313L142.054 54.0114H145.194C145.143 56.6996 146.122 59.8574 146.059 61.0318C145.952 62.9618 148.931 73.3748 148.931 73.3748C148.931 73.3748 155.166 63.2688 157.627 62.3688C159.175 61.8038 162.453 57.1019 164.678 53.6789L169.251 56.274Z" fill="black"/>
<path d="M189.871 120.689L189.339 121.359C189.339 121.359 193.188 140.722 192.123 145.12C191.942 145.912 191.839 146.721 191.815 147.533V147.568C191.627 152.042 192.975 157.849 192.975 157.849C192.975 157.849 194.052 174.963 193.439 182.002H121.37C120.948 171.594 120.493 158.109 120.906 156.614C121.602 154.147 122.994 145.196 122.994 145.196L123.147 140.955C123.147 140.955 123.147 136.855 123.273 132.288C123.326 130.235 123.405 128.079 123.519 126.168C123.665 123.763 123.869 121.738 124.15 120.743C124.323 119.988 124.422 119.219 124.447 118.445C124.447 118.373 124.447 118.299 124.461 118.224C124.461 117.992 124.484 117.741 124.493 117.483C124.493 117.41 124.493 117.338 124.493 117.25C124.537 115.752 124.521 113.976 124.472 112.134C124.472 112.034 124.472 111.932 124.472 111.83C124.433 110.448 124.375 109.039 124.31 107.7C124.108 103.514 123.846 99.9748 123.846 99.9748L114.994 70.5821L117.379 64.6942L123.999 60.6295L136.238 53.2231C142.207 48.305 146.138 48.8956 147.637 49.4351C147.782 49.4849 147.925 49.5431 148.064 49.6095C148.11 49.6328 148.147 49.6514 148.182 49.6723C148.23 49.6949 148.275 49.7214 148.319 49.7514C147.908 49.9493 147.552 50.2436 147.279 50.6094C146.972 51.0257 146.754 51.5005 146.637 52.0046C146.558 52.3171 146.503 52.635 146.472 52.9557C146.442 53.2929 146.43 53.6417 146.43 53.9928C146.447 54.7629 146.513 55.5311 146.627 56.2926C146.627 56.3066 146.627 56.3252 146.627 56.3438C146.704 56.8879 146.799 57.4204 146.892 57.9204C146.891 57.9289 146.891 57.9375 146.892 57.946C146.999 58.5296 147.105 59.0691 147.177 59.5342C147.191 59.6179 147.203 59.6947 147.214 59.7667C147.266 60.0741 147.29 60.3853 147.286 60.6969C147.312 61.4492 147.413 62.1971 147.588 62.9293C147.648 63.2362 147.718 63.5641 147.794 63.9059C147.899 64.371 148.013 64.8779 148.135 65.3942C148.203 65.6778 148.275 65.9708 148.349 66.2615C148.377 66.3778 148.407 66.4941 148.435 66.6126L148.481 66.7964C148.975 68.7659 149.511 70.7262 149.841 71.9122C150.036 72.6098 150.159 73.04 150.159 73.04C150.159 73.04 153.653 67.3777 156.442 64.1547C156.483 64.1082 156.521 64.064 156.56 64.0222C156.836 63.7036 157.108 63.4129 157.367 63.1571C157.936 62.5898 158.446 62.1851 158.857 62.0363C158.945 62.0041 159.029 61.9644 159.11 61.9177C160.251 61.2689 162.094 58.9133 163.817 56.4461C163.987 56.2136 164.152 55.9601 164.319 55.7206C164.701 55.1672 165.073 54.6114 165.423 54.0789C165.692 53.6719 165.95 53.2766 166.193 52.8999C167.353 51.0908 168.17 49.7421 168.17 49.7421L169.78 49.67L170.061 49.656H170.249L177.56 49.3165C177.56 49.3165 177.875 49.37 178.395 49.4746C178.423 49.4746 178.451 49.4746 178.481 49.4932C181.075 50.0095 188.281 51.6442 188.722 53.9115C189.26 56.688 200.884 60.3923 200.884 60.3923C201.038 62.2526 203.884 63.478 203.884 63.478C203.884 63.478 208.195 74.8956 207.042 79.3696C205.903 83.7879 210.007 94.7171 210.116 95.0241L209.33 96.0193L189.871 120.689Z" fill="#E8F5FF"/>
<path opacity="0.1" d="M167.446 39.1453C167.446 39.1453 174.562 37.1223 176.179 41.287C177.796 45.4517 181.414 62.2712 181.414 62.2712C181.414 62.2712 172.022 64.0454 169.56 62.2712C168.116 61.2182 166.329 60.7498 164.555 60.9597L159.244 64.5849L157.676 64.1198C157.676 64.1198 166.172 51.4605 168.019 47.1586C169.866 42.8566 170.49 40.9335 167.446 39.1453Z" fill="black"/>
<path d="M167.138 38.2152C167.138 38.2152 174.258 36.1921 175.882 40.3569C177.506 44.5216 181.117 61.341 181.117 61.341C181.117 61.341 171.727 63.1153 169.263 61.341C167.82 60.288 166.033 59.8196 164.261 60.0295L158.945 63.6548L157.377 63.1897C157.377 63.1897 165.873 50.5304 167.72 46.2284C169.567 41.9265 170.182 40.008 167.138 38.2152Z" fill="#E8F5FF"/>
<path opacity="0.1" d="M119.372 105.314C119.372 105.314 124.683 106.625 125.686 109.634C126.688 112.643 121.76 112.72 121.76 112.72C121.76 112.72 118.758 107.397 119.372 105.314Z" fill="black"/>
<path opacity="0.1" d="M139.154 127.53C139.154 127.53 126.147 154.223 129.15 156.77C132.152 159.316 139.154 127.53 139.154 127.53Z" fill="black"/>
<path opacity="0.1" d="M157.089 107.86C157.089 107.86 167.481 133.788 165.402 137.792C163.323 141.797 169.866 137.792 169.866 137.792L157.089 107.86Z" fill="black"/>
<path d="M171.56 133.472C171.56 133.472 136.46 135.169 146.699 146.124C156.938 157.079 177.95 146.589 177.95 146.589L171.56 133.472Z" fill="#FFC1C7"/>
<path opacity="0.1" d="M166.481 29.3253C166.484 31.8484 165.99 34.3472 165.026 36.6781C164.704 36.7153 164.381 36.7386 164.07 36.7525C163.606 35.7317 163.855 34.5527 163.864 33.4296C163.873 32.3064 163.46 30.9856 162.381 30.6833C160.231 30.0764 158.746 34.1063 156.625 33.3784C155.001 32.825 155.425 30.3554 154.49 28.93C153.75 27.8022 152.268 27.4836 151.115 26.7767C148.662 25.2675 148.736 22.8538 147.597 20.5703C146.405 18.1774 143.885 18.8844 141.697 20.2959C140.036 21.3702 138.602 22.8096 136.825 23.6653C135.286 24.4094 133.558 24.6792 131.853 24.7187C130.803 24.7595 129.752 24.6483 128.734 24.3885C129.932 19.8759 132.726 15.9539 136.596 13.3539C140.466 10.7539 145.148 9.65337 149.768 10.2576C154.388 10.8619 158.631 13.1296 161.705 16.638C164.78 20.1463 166.477 24.6557 166.479 29.3253H166.481Z" fill="black"/>
<path d="M141.704 19.6796C140.04 20.754 138.609 22.191 136.832 23.0514C135.293 23.7932 133.565 24.063 131.86 24.1025C129.771 24.149 127.523 23.7816 126.096 22.2701C124.785 20.8749 124.472 18.7286 125.027 16.8985C125.581 15.0684 126.911 13.55 128.472 12.4501C130.034 11.3502 131.846 10.5898 132.88 9.01548C133.428 8.18299 133.693 7.20169 134.147 6.31572C135.602 3.48109 138.873 1.94634 142.036 1.75566C145.198 1.56498 148.333 2.50908 151.344 3.53225C154.356 4.55541 157.391 5.68089 160.569 5.8925C161.985 5.98087 163.456 5.8925 164.769 6.42966C166.534 7.1482 167.692 8.86665 168.481 10.6153C169.365 12.5873 169.915 14.7405 169.822 16.8938C169.627 21.4911 166.597 26.0023 167.929 30.4066C168.282 31.5809 168.943 32.7854 168.59 33.9598C168.075 35.6736 165.869 36.0642 164.084 36.1456C163.62 35.1248 163.869 33.9435 163.878 32.8227C163.887 31.7018 163.474 30.3787 162.398 30.0764C160.244 29.4741 158.76 33.497 156.644 32.7715C155.031 32.2157 155.449 29.7485 154.511 28.3231C153.771 27.1929 152.286 26.8767 151.136 26.1698C148.683 24.6606 148.757 22.2469 147.618 19.9633C146.416 17.5589 143.894 18.2658 141.704 19.6796Z" fill="#99607E"/>
<path d="M107.67 108.167L105.899 108.786C105.899 108.786 106.595 119.278 104.275 122.287C101.955 125.296 111.895 132.776 111.895 132.776C111.895 132.776 125.519 132.7 125.904 131.614C126.289 130.528 125.208 112.174 125.208 112.174C125.208 112.174 117.894 109.318 118.509 104.767C118.509 104.767 116.277 115.49 112.969 115.027C109.66 114.564 105.904 111.795 107.67 108.167Z" fill="#E8F5FF"/>
<path opacity="0.1" d="M113.574 118.273C116.154 118.273 118.245 116.356 118.245 113.992C118.245 111.628 116.154 109.711 113.574 109.711C110.995 109.711 108.904 111.628 108.904 113.992C108.904 116.356 110.995 118.273 113.574 118.273Z" fill="black"/>
<path d="M118.681 108.476C118.681 108.476 117.753 80.0882 109.674 86.4132C101.595 92.7382 101.516 100.303 103.055 102.537C104.593 104.772 109.526 115.959 109.526 115.959C110.297 116.408 111.164 116.666 112.054 116.714C112.945 116.762 113.834 116.597 114.649 116.234C115.464 115.871 116.181 115.32 116.743 114.626C117.304 113.931 117.693 113.113 117.878 112.239L118.681 108.476Z" fill="#FFC1C7"/>
<path opacity="0.1" d="M169.077 36.5688C169.04 36.4441 168.967 36.3328 168.869 36.2479C168.469 35.8828 167.611 35.7549 166.316 35.8666L166.37 36.4805C168.096 36.3316 168.437 36.6758 168.481 36.7339V36.7921L168.534 36.8688C168.75 37.1587 168.902 37.4905 168.982 37.8429C169.062 38.1952 169.068 38.5605 168.998 38.9151C168.62 40.8103 166.298 42.3195 166.275 42.3358L166.219 42.3683L166.184 42.4218C165.182 43.9124 159.514 48.119 158.031 49.2072L157.901 49.0584C157.238 49.6351 151.405 54.7532 151.089 56.7135C150.885 57.9437 149.502 58.4204 149.001 58.5529C148.472 58.1506 146.755 56.781 145.862 55.2462C145.024 53.8022 148.395 50.9838 148.692 49.8839L148.228 49.4072C148.18 49.5839 143.85 53.6394 145.054 55.7113C146.02 57.3739 147.783 58.7971 148.4 59.2668C148.203 61.062 146.975 71.6029 145.089 74.1004C142.746 77.2047 140.776 92.8498 140.994 98.3121C141.187 103.165 139.922 112.332 135.699 116.269C134.968 116.98 134.086 117.517 133.119 117.839C132.152 118.161 131.125 118.26 130.115 118.129H130.064H130.013C129.952 118.129 123.827 118.757 118.681 114.408C114.47 110.858 112.085 105.063 111.588 97.1797H111.486L111.444 94.8845C112.586 94.7059 113.615 94.0907 114.313 93.1682C115.012 92.2457 115.327 91.0877 115.191 89.9374C115.056 88.7872 114.481 87.7343 113.587 87C112.694 86.2657 111.551 85.9072 110.399 85.9997C109.247 86.0922 108.176 86.6286 107.41 87.4962C106.645 88.3638 106.244 89.495 106.293 90.6521C106.343 91.8093 106.837 92.9023 107.674 93.7015C108.51 94.5007 109.623 94.9439 110.779 94.938H110.83L110.871 97.2192L110.667 97.2332C111.178 105.372 113.683 111.392 118.092 115.111C121.442 117.893 125.722 119.297 130.066 119.038C130.374 119.072 130.684 119.089 130.994 119.089C132.985 119.1 134.901 118.327 136.331 116.938C140.778 112.788 142.131 103.284 141.92 98.2656C141.688 92.4778 143.755 77.3954 145.829 74.6491C147.862 71.954 149.094 61.4526 149.31 59.4179C150.045 59.211 151.709 58.5576 151.992 56.86C152.196 55.6322 156.091 51.8489 158.488 49.7537L158.416 49.67C159.706 48.7259 163.718 45.7494 165.706 43.8379C166.323 43.245 166.936 42.652 167.576 42.0869C168.347 41.4033 169.326 40.3173 169.583 39.0337C169.671 38.61 169.671 38.1728 169.584 37.7489C169.497 37.325 169.325 36.9234 169.077 36.5688Z" fill="black"/>
<path d="M148.321 59.1203C148.224 59.0529 145.913 57.3949 144.755 55.3997C143.553 53.3278 147.883 49.2747 147.929 49.0979L148.393 49.5746C148.098 50.6722 144.727 53.4929 145.565 54.9346C146.62 56.7554 148.843 58.3483 148.866 58.3645L148.321 59.1203Z" fill="#353146"/>
<path d="M157.729 49.6583L157.367 49.1584C157.442 49.1049 164.729 43.8217 165.878 42.1125L165.915 42.0613L165.968 42.0265C165.992 42.0102 168.314 40.5033 168.692 38.6058C168.762 38.2516 168.757 37.8866 168.677 37.5345C168.597 37.1824 168.444 36.851 168.228 36.5618L168.175 36.4828V36.427C168.128 36.3665 167.787 36.0247 166.061 36.1735L166.008 35.5573C167.305 35.4457 168.161 35.5736 168.56 35.9386C168.659 36.0243 168.732 36.1364 168.771 36.2619C169.022 36.6154 169.198 37.0167 169.288 37.4411C169.378 37.8654 169.381 38.3038 169.295 38.7291C169.038 40.015 168.061 41.101 167.289 41.7823C166.65 42.3474 166.036 42.945 165.421 43.5333C163.089 45.7726 157.985 49.4746 157.729 49.6583Z" fill="#E8F5FF"/>
<path d="M111.145 94.0749L110.53 94.0862L110.599 97.8318L111.214 97.8205L111.145 94.0749Z" fill="#E8F5FF"/>
<path d="M110.479 94.6427C112.959 94.6427 114.969 92.6282 114.969 90.1431C114.969 87.658 112.959 85.6435 110.479 85.6435C108 85.6435 105.99 87.658 105.99 90.1431C105.99 92.6282 108 94.6427 110.479 94.6427Z" fill="#6C63FF"/>
<path d="M110.479 93.88C112.538 93.88 114.208 92.2069 114.208 90.1431C114.208 88.0793 112.538 86.4062 110.479 86.4062C108.42 86.4062 106.751 88.0793 106.751 90.1431C106.751 92.2069 108.42 93.88 110.479 93.88Z" fill="#E8F5FF"/>
<path d="M130.702 118.789C130.392 118.79 130.082 118.774 129.774 118.741C125.43 118.997 121.151 117.593 117.799 114.813C113.391 111.092 110.89 105.079 110.375 96.9332L111.303 96.8751C111.799 104.758 114.185 110.555 118.398 114.104C123.544 118.441 129.667 117.824 129.727 117.824H129.778H129.829C130.84 117.955 131.868 117.856 132.835 117.533C133.802 117.211 134.685 116.675 135.416 115.964C139.637 112.027 140.901 102.861 140.709 98.0075C140.477 92.5406 142.447 76.8954 144.792 73.7934C146.846 71.075 148.119 58.8226 148.133 58.6994L148.168 58.3506L148.511 58.2901C148.532 58.2901 150.537 57.9088 150.788 56.4066C151.112 54.4486 156.936 49.3305 157.597 48.7515L158.203 49.4491C155.797 51.5419 151.901 55.3276 151.706 56.5577C151.423 58.2599 149.76 58.911 149.027 59.1156C148.794 61.1527 147.572 71.6517 145.546 74.3468C143.472 77.0931 141.405 92.1755 141.637 97.9633C141.836 102.981 140.498 112.488 136.05 116.636C134.618 118.029 132.697 118.802 130.702 118.789Z" fill="#353146"/>
<g opacity="0.1">
<path d="M168.458 23.8281C168.838 22.4189 169.298 21.0004 169.618 19.5727C169.235 21.0074 168.773 22.4189 168.458 23.8281Z" fill="black"/>
<path d="M164.576 34.9015C164.112 33.8807 164.36 32.6994 164.37 31.5786C164.379 30.4577 163.966 29.1462 162.889 28.8323C160.736 28.23 159.251 32.2553 157.135 31.5274C155.511 30.9716 155.941 28.5044 155.003 27.079C154.263 25.9488 152.78 25.6326 151.63 24.9257C149.175 23.4165 149.249 21.0028 148.112 18.7193C146.917 16.3241 144.4 17.031 142.21 18.4449C140.546 19.5192 139.115 20.9586 137.337 21.8167C135.799 22.5584 134.071 22.8282 132.365 22.8677C130.289 22.9166 128.029 22.5468 126.602 21.0353C125.502 19.8726 125.106 18.1681 125.333 16.5706C125.293 16.6799 125.259 16.7892 125.224 16.8985C124.667 18.7286 124.992 20.8795 126.293 22.2701C127.72 23.7816 129.98 24.149 132.057 24.1025C133.764 24.063 135.491 23.7932 137.031 23.0514C138.813 22.191 140.245 20.754 141.904 19.6796C144.094 18.2658 146.613 17.5589 147.806 19.954C148.943 22.2375 148.871 24.6513 151.323 26.1605C152.483 26.8581 153.957 27.1836 154.699 28.3137C155.627 29.7438 155.217 32.2064 156.831 32.7622C158.945 33.4877 160.43 29.4648 162.583 30.0671C163.66 30.3694 164.075 31.6948 164.063 32.8133C164.052 33.9318 163.811 35.1155 164.27 36.1363C166.054 36.0549 168.261 35.6712 168.778 33.9505C168.849 33.7035 168.882 33.447 168.875 33.1901C168.121 34.4946 166.182 34.8294 164.576 34.9015Z" fill="black"/>
</g>
<path opacity="0.1" d="M206.509 92.1987L209.202 95.0543C209.202 95.0543 211.358 110.79 212.434 112.262C213.511 113.734 216.054 119.589 213.666 123.987C213.666 123.987 212.896 126.379 213.358 127.382C213.819 128.384 209.896 133.4 209.896 133.4C209.896 133.4 204.738 138.027 203.659 138.722C202.58 139.418 196.887 144.971 194.963 145.047C193.04 145.124 192.411 147.517 192.411 147.517L181.557 147.903C181.557 147.903 175.562 147.589 174.258 148.438C174.258 148.438 174.954 139.257 168.256 133.239L176.799 130.153C176.799 130.153 180.033 128.758 181.033 127.3C181.662 126.406 182.555 125.732 183.585 125.373C183.585 125.373 185.97 123.675 186.047 122.75C186.124 121.824 188.963 120.689 188.963 120.689L187.356 106.935L188.202 84.0995C188.202 84.0995 190.896 64.9663 196.592 66.0476C202.288 67.1289 206.509 92.1987 206.509 92.1987Z" fill="black"/>
<path d="M207.437 92.1987L210.13 95.0543C210.13 95.0543 212.286 110.79 213.362 112.262C214.439 113.734 216.982 119.589 214.594 123.987C214.594 123.987 213.826 126.379 214.288 127.382C214.75 128.384 210.824 133.4 210.824 133.4C210.824 133.4 205.666 138.027 204.587 138.722C203.509 139.418 197.815 144.971 195.891 145.047C193.968 145.124 193.339 147.517 193.339 147.517L182.486 147.903C182.486 147.903 176.486 147.589 175.186 148.438C175.186 148.438 175.882 139.257 169.184 133.239L177.727 130.153C177.727 130.153 180.961 128.758 181.961 127.3C182.59 126.406 183.483 125.732 184.513 125.373C184.513 125.373 186.899 123.675 186.975 122.75C187.052 121.824 189.892 120.689 189.892 120.689L188.284 106.935L189.131 84.0995C189.131 84.0995 191.824 64.9663 197.52 66.0476C203.216 67.1289 207.437 92.1987 207.437 92.1987Z" fill="#E8F5FF"/>
<path opacity="0.1" d="M197.423 115.266C197.423 115.266 205.351 113.174 207.43 115.732C209.509 118.289 197.423 115.266 197.423 115.266Z" fill="black"/>
<path opacity="0.1" d="M195.576 118.775C198.27 120.666 206.583 120.743 206.583 120.743L195.576 118.775Z" fill="black"/>
<path opacity="0.1" d="M199.655 128.226C199.887 128.302 205.369 134.167 207.671 132.393C209.973 130.619 199.655 128.226 199.655 128.226Z" fill="black"/>
<path d="M90.1709 83.5251C88.3147 84.9831 86.9598 88.4339 85.9783 92.2266C84.2661 98.8423 83.7069 106.514 83.7069 106.514C83.7069 106.514 68.9275 103.119 70.004 101.577C70.6815 100.607 69.772 93.301 69.0133 88.0038C68.5609 84.8738 68.1572 82.4438 68.1572 82.4438C68.1572 82.4438 95.252 79.5115 90.1709 83.5251Z" fill="#FFCCD0"/>
<path opacity="0.1" d="M90.1709 83.2158C88.3147 84.6762 86.9598 88.1247 85.9783 91.9174C83.0337 92.8135 79.902 92.8943 76.9152 92.1513C73.9285 91.4083 71.198 89.869 69.0133 87.6968C68.5609 84.5645 68.1572 82.1345 68.1572 82.1345C68.1572 82.1345 95.252 79.2045 90.1709 83.2158Z" fill="black"/>
<path d="M98.1151 74.9049C98.1166 78.9495 96.6905 82.8642 94.089 85.9562C91.4876 89.0483 87.8786 91.1182 83.9008 91.7998C79.923 92.4813 75.8329 91.7305 72.3543 89.6803C68.8758 87.63 66.233 84.4124 64.8939 80.597C63.5547 76.7817 63.6055 72.6145 65.0371 68.833C66.4688 65.0515 69.1891 61.8996 72.7166 59.935C76.2441 57.9705 80.3512 57.3199 84.3113 58.0986C88.2713 58.8772 91.8288 61.0349 94.3541 64.1896C96.7877 67.2285 98.1144 71.0083 98.1151 74.9049Z" fill="#FFCCD0"/>
<path opacity="0.1" d="M111.591 182.002H106.718L106.308 173.378L105.878 164.45C105.878 164.45 106.985 164.285 108.748 164.039L109.461 163.943H109.519C109.904 165.755 110.284 167.615 110.651 169.473C111.261 172.772 111.579 176.118 111.6 179.472C111.6 179.705 111.6 179.937 111.6 180.156C111.614 180.777 111.6 181.398 111.591 182.002Z" fill="black"/>
<path d="M110.656 182.002H49.5518C49.8163 181.4 49.9926 181.035 49.9926 181.035C49.9926 181.035 54.8812 159.6 57.3661 150.531C57.3668 150.523 57.3668 150.515 57.3661 150.507C57.6765 149.276 58.0514 148.061 58.489 146.868C58.5173 146.787 58.5538 146.709 58.5981 146.636C59.8278 144.631 61.3684 142.471 59.2129 139.385C57.0575 136.299 57.8208 122.722 57.8208 122.722C57.8208 122.722 60.438 111.148 63.2082 104.977C63.6287 104.021 64.2253 103.153 64.9669 102.419C65.208 102.182 65.4654 101.963 65.7372 101.763C65.9438 101.607 66.1592 101.464 66.3822 101.333L66.4263 101.305C67.59 100.644 68.8823 100.241 70.2151 100.126C71.1619 100.027 72.1175 100.053 73.0573 100.205C77.5492 100.865 81.1454 101.97 84.0039 103.228C91.7509 106.639 94.0966 111.211 94.143 111.306L94.1616 111.346C94.4725 112.074 99.02 122.715 100.658 127.679C101.083 128.972 101.315 129.881 101.222 130.13C100.758 131.363 104.762 146.792 104.762 146.792C104.762 146.792 106.619 154.233 108.475 162.955C108.556 163.318 108.632 163.681 108.707 164.048C109.038 165.632 109.368 167.246 109.686 168.857C110.302 172.178 110.619 175.548 110.635 178.926C110.669 179.978 110.676 181.004 110.656 182.002Z" fill="#FF748E"/>
<path opacity="0.1" d="M69.8509 94.8194C69.8509 94.8194 65.6351 93.1917 65.6862 95.6612C65.7372 98.1308 66.714 99.3121 66.4054 99.6725C66.0969 100.033 66.5586 102.193 66.5586 102.193C66.5586 102.193 72.2546 102.193 74.8717 103.374C77.4889 104.556 87.1361 106.923 88.3681 107.644C89.6001 108.365 94.1685 111.597 94.1685 111.597L94.5792 105.477C94.5792 105.477 89.8577 101.568 82.1106 99.5632C74.3636 97.5587 69.8509 94.8194 69.8509 94.8194Z" fill="black"/>
<path d="M69.8509 94.5102C69.8509 94.5102 65.6351 92.8824 65.6862 95.3519C65.7372 97.8215 66.714 99.0028 66.4054 99.3632C66.0969 99.7236 66.5586 101.884 66.5586 101.884C66.5586 101.884 72.2546 101.884 74.8717 103.068C77.4889 104.251 87.1361 106.616 88.3681 107.335C89.6001 108.053 94.1685 111.288 94.1685 111.288L94.5838 105.186C94.5838 105.186 89.8623 101.277 82.1153 99.2725C74.3682 97.2681 69.8509 94.5102 69.8509 94.5102Z" fill="#FF748E"/>
<path opacity="0.1" d="M82.577 109.239C82.577 109.239 90.6326 117.98 90.2219 120.401C89.8112 122.822 82.577 109.239 82.577 109.239Z" fill="black"/>
<path opacity="0.1" d="M69.4913 140.815C69.4913 140.815 63.5864 146.268 61.8463 146.578C60.1062 146.887 63.1804 147.915 65.1804 147.094C67.1804 146.273 71.4448 144.113 71.4448 144.113L69.4913 140.815Z" fill="black"/>
<path d="M113.055 182.002H99.2845C97.3588 180.328 95.5374 178.777 94.3773 177.845C92.5212 176.352 91.1825 174.154 90.3287 172.387C90.1361 171.985 89.969 171.608 89.8275 171.266C89.5741 170.677 89.351 170.076 89.1593 169.464L99.3564 163.395C99.92 163.875 100.449 164.394 100.941 164.948L101.064 165.09C101.63 165.76 102.129 166.52 102.173 167.143C102.224 167.869 104.238 170.675 106.296 173.371C108.384 176.112 110.523 178.733 110.665 178.91C110.665 178.91 111.018 179.391 111.593 180.13C111.999 180.665 112.5 181.307 113.055 182.002Z" fill="#FFCCD0"/>
<path opacity="0.1" d="M94.3541 64.1896C93.8646 65.2965 93.4261 66.4452 93.3611 67.6777C93.1778 71.2355 93.4748 79.1906 89.5444 80.9765C87.5978 81.8555 85.5143 79.9254 83.3797 79.8789C81.8438 79.8463 80.4355 80.823 79.4981 82.0438C78.5608 83.2646 77.9784 84.7133 77.2986 86.0946C76.6798 87.3483 75.967 88.5532 75.1664 89.6989C74.9271 90.0496 74.6635 90.3829 74.3775 90.6965C71.9809 89.683 69.8468 88.1345 68.1378 86.1691C66.4287 84.2038 65.1899 81.8733 64.5156 79.3554C63.8413 76.8374 63.7494 74.1984 64.2468 71.6395C64.7443 69.0806 65.818 66.6692 67.3862 64.5892C68.9543 62.5091 70.9755 60.8153 73.2958 59.6367C75.616 58.4582 78.174 57.826 80.775 57.7884C83.3759 57.7507 85.9511 58.3086 88.3043 59.4195C90.6576 60.5305 92.7267 62.1651 94.3541 64.1989V64.1896Z" fill="black"/>
<path d="M93.0525 67.0498C92.8669 70.6076 93.1662 78.5627 89.2335 80.3463C87.2869 81.2253 85.2034 79.2976 83.0688 79.2511C81.5329 79.2162 80.1268 80.1952 79.1872 81.4137C78.2475 82.6321 77.6698 84.0832 76.9877 85.4668C76.3686 86.7204 75.6559 87.9253 74.8554 89.0711C74.3775 89.7501 73.8485 90.4314 73.113 90.8128C71.8323 91.4825 70.2801 91.1058 68.9065 90.6756C67.1246 90.1129 65.3691 89.4788 63.6398 88.7735C63.6794 88.5118 63.6996 88.2475 63.7001 87.9828C63.649 88.0805 63.5934 88.1712 63.5377 88.2689L63.4286 88.4595C63.2314 88.8083 63.0388 89.1571 62.8625 89.5153C62.7952 89.6524 62.7303 89.7943 62.6723 89.9361C62.4389 90.464 62.2924 91.0263 62.2384 91.6011C62.1201 93.1521 62.8834 94.6241 63.5609 96.0193C66.1664 101.417 67.7766 107.728 65.8161 113.39C64.9669 115.852 63.4959 118.041 62.4217 120.419C60.5438 124.633 59.9911 129.319 60.837 133.855C61.373 136.674 62.4472 139.464 62.1827 142.322C61.7187 147.24 57.4867 150.9 53.2477 153.417C50.9577 154.77 48.155 155.974 45.7234 154.905C47.2733 153.091 47.6724 150.582 48.0065 148.215C48.9206 141.758 49.8371 135.298 50.7559 128.835C51.1225 126.263 51.4883 123.691 51.8533 121.119C52.5355 116.287 53.2269 111.402 52.8 106.539C52.4891 102.956 51.612 99.1516 53.1619 95.9077C53.9809 94.1893 55.4403 92.7661 55.8951 90.9151C56.2686 89.4106 55.9206 87.8108 56.1665 86.2783C56.3011 85.5811 56.529 84.9053 56.844 84.2692C57.2451 83.406 57.7687 82.6056 58.3985 81.8927C57.7767 81.7113 57.1967 81.4625 56.844 80.9416C57.8417 80.2905 57.9925 78.8232 57.54 77.721C57.0876 76.6187 56.1827 75.7793 55.3684 74.9096C54.554 74.0399 53.7698 73.026 53.6677 71.8401C53.4705 69.5822 55.721 67.8335 56.1178 65.6058C56.5192 63.3385 54.9322 61.1341 55.0598 58.8389C55.2083 56.0648 57.7512 54.0487 60.2616 52.879C64.0499 51.1214 68.2347 50.3993 72.3914 50.7862C75.7742 51.1071 79.048 52.1558 82.4215 52.5627C84.4563 52.7953 86.5189 52.8185 88.5398 53.1766C90.5606 53.5347 92.5861 54.2905 94.0084 55.7764C97.7578 59.6947 93.2659 62.92 93.0525 67.0498Z" fill="#FFE0D0"/>
<path opacity="0.1" d="M89.9156 172.389C88.7323 171.875 86.5792 172.182 82.8832 171.054C79.1872 169.927 78.4749 164.829 78.4749 164.829V164.813C78.4308 164.697 78.0874 163.939 75.7626 161.283C73.1942 158.351 67.642 143.541 67.642 143.541C67.642 143.541 62.7187 138.241 62.8741 136.288C63.0296 134.334 61.9994 129.137 62.1015 123.324C62.2036 117.51 73.1849 113.655 73.1849 113.655C94.3286 109.899 89.3495 134.33 88.7857 136.181C88.2219 138.032 91.1476 143.031 91.1476 143.031C90.7346 145.208 92.8413 148.577 92.8413 148.577C92.8413 148.577 93.3518 151.559 93.4562 152.691C93.462 152.743 93.4737 152.795 93.491 152.844C93.8297 153.912 96.5907 154.879 97.7137 155.467C98.8947 156.086 102.693 161.486 102.693 161.486C103.512 165.45 91.0943 172.91 89.9156 172.389Z" fill="black"/>
<path d="M90.5305 171.459C89.3496 170.943 87.1941 171.252 83.5004 170.122C79.8067 168.992 79.0921 163.899 79.0921 163.899V163.883C79.0503 163.764 78.7046 163.009 76.3798 160.353C73.8114 157.421 68.2593 142.608 68.2593 142.608C68.2593 142.608 63.3359 137.311 63.489 135.358C63.6421 133.404 62.6166 128.207 62.7187 122.398C62.8208 116.59 73.7952 112.736 73.7952 112.736C94.9388 108.981 89.9598 133.411 89.396 135.262C88.8322 137.113 91.7579 142.113 91.7579 142.113C91.3449 144.289 93.4516 147.659 93.4516 147.659C93.4516 147.659 93.962 150.64 94.0688 151.772C94.0727 151.825 94.0836 151.876 94.1012 151.926C94.44 152.993 97.201 153.961 98.3263 154.549C99.5049 155.165 103.305 160.567 103.305 160.567C104.129 164.525 91.7115 171.985 90.5305 171.459Z" fill="#FF748E"/>
<path opacity="0.1" d="M74.2128 125.491C74.2128 125.491 83.4493 135.258 85.86 135.258C88.2706 135.258 74.2128 125.491 74.2128 125.491Z" fill="black"/>
<path d="M90.5305 171.459C89.3495 170.943 87.1941 171.252 83.5004 170.122C79.8067 168.992 79.092 163.899 79.092 163.899V163.883C81.5398 162.255 87.7393 157.658 90.1824 155.977C91.9017 154.798 93.3054 153.065 94.1267 151.917C94.4655 152.984 97.2264 153.951 98.3517 154.54C99.5304 155.156 103.331 160.558 103.331 160.558C104.129 164.525 91.7114 171.985 90.5305 171.459Z" fill="#FF748E"/>
<g opacity="0.1">
<path d="M56.8579 80.9672C56.8695 80.9858 56.8858 81.0021 56.8997 81.0207C56.9693 80.9323 57.0412 80.8439 57.1154 80.7602C57.0364 80.8373 56.9501 80.9066 56.8579 80.9672Z" fill="black"/>
<path d="M62.2407 91.6267C62.3382 90.3361 63.0272 89.199 63.6722 88.0642C63.25 87.9014 62.8277 87.7363 62.4101 87.5643C62.4498 87.3034 62.47 87.0399 62.4704 86.776C61.8184 87.9386 61.1085 89.0827 61.0087 90.3919C60.8904 91.9453 61.6537 93.4149 62.3312 94.8101C64.939 100.205 66.5469 106.516 64.5864 112.181C63.7349 114.641 62.2662 116.831 61.192 119.21C59.3148 123.423 58.7629 128.109 59.6096 132.644C60.1409 135.465 61.2175 138.253 60.953 141.111C60.489 146.029 56.2593 149.689 52.0181 152.203C50.2849 153.23 48.2594 154.172 46.3221 154.105C46.1427 154.394 45.9427 154.67 45.7234 154.93C48.1573 156.007 50.9577 154.795 53.2477 153.437C57.4913 150.926 61.7303 147.275 62.1943 142.348C62.4588 139.49 61.3822 136.702 60.8486 133.881C60.0016 129.346 60.5519 124.661 62.4263 120.447C63.4936 118.071 64.9785 115.878 65.8207 113.418C67.7813 107.753 66.1711 101.442 63.5655 96.0472C62.8903 94.6427 62.1224 93.18 62.2407 91.6267Z" fill="black"/>
<path d="M94.0038 55.8043C93.7755 55.5696 93.5305 55.352 93.2706 55.1532C96.0826 58.8087 92.0223 61.9154 91.8205 65.8499C91.6395 69.4077 91.9365 77.3652 88.0038 79.1464C86.0595 80.0277 83.9737 78.0977 81.8415 78.0512C80.3032 78.0186 78.8972 78.9976 77.9575 80.2161C77.0178 81.4346 76.4401 82.8856 75.7603 84.2669C75.1401 85.5204 74.4266 86.7252 73.6258 87.8712C73.1617 88.5525 72.6188 89.2316 71.881 89.6152C70.6049 90.2826 69.0527 89.9082 67.6769 89.4757C66.3389 89.0541 65.0133 88.589 63.7001 88.0805C63.6974 88.3227 63.6772 88.5644 63.6398 88.8037C65.3706 89.5106 67.127 90.1447 68.9089 90.7058C70.2824 91.1384 71.8346 91.5127 73.113 90.8454C73.8485 90.4617 74.3821 89.7803 74.8578 89.099C75.6592 87.9546 76.372 86.7504 76.99 85.497C77.6721 84.1157 78.2475 82.6624 79.1895 81.4439C80.1315 80.2254 81.5352 79.2487 83.0711 79.2813C85.2057 79.3278 87.2915 81.2578 89.2358 80.3765C93.1685 78.5953 92.8692 70.6379 93.0525 67.08C93.2659 62.9432 97.7578 59.7202 94.0038 55.8043Z" fill="black"/>
</g>
<path opacity="0.1" d="M63.431 88.4618C63.2338 88.8107 63.0412 89.1595 62.8649 89.5176C62.7976 89.6548 62.7326 89.7966 62.6746 89.9385C61.4589 88.7107 58.4983 85.7923 56.8464 84.8877C57.248 84.0249 57.7716 83.2245 58.4009 82.5112C58.4009 82.5112 62.3382 84.5971 63.431 88.4618Z" fill="black"/>
<path d="M63.54 88.2712C62.6282 84.1343 58.4009 81.895 58.4009 81.895C57.7711 82.6079 57.2475 83.4084 56.8464 84.2715C58.5888 85.2273 61.7999 88.4316 62.8649 89.5176L63.54 88.2712Z" fill="#FF748E"/>
</g>
<defs>
<linearGradient id="paint0_linear_25_269" x1="169.379" y1="22.1864" x2="169.379" y2="17.9124" gradientUnits="userSpaceOnUse">
<stop stop-color="#808080" stop-opacity="0.25"/>
<stop offset="0.54" stop-color="#808080" stop-opacity="0.12"/>
<stop offset="1" stop-color="#808080" stop-opacity="0.1"/>
</linearGradient>
<linearGradient id="paint1_linear_25_269" x1="130.586" y1="182.002" x2="130.586" y2="5.20142e-06" gradientUnits="userSpaceOnUse">
<stop stop-color="#808080" stop-opacity="0.25"/>
<stop offset="0.54" stop-color="#808080" stop-opacity="0.12"/>
<stop offset="1" stop-color="#808080" stop-opacity="0.1"/>
</linearGradient>
<clipPath id="clip0_25_269">
<rect width="252" height="182" fill="white"/>
</clipPath>
</defs>
</svg>
